<svg  viewBox="0 0 178 269" fill="none" xmlns="http://www.w3.org/2000/svg">
<path d="M111.108 215.096C105.28 220.493 99.7021 225.557 94.2193 230.722C91.4622 233.32 88.9783 233.864 85.6076 231.412C44.9446 201.835 15.1295 164.507 3.10395 114.811C-10.7486 57.566 29.647 7.8885 80.8739 1.41787C114.846 -2.87322 151.23 12.3801 167.027 47.1138C182.577 81.3044 179.714 115.003 162.628 147.887C149.483 173.186 131.419 194.753 111.108 215.096ZM65.2812 90.1995C56.2392 82.0534 47.2 73.9041 38.1537 65.7626C34.3473 62.337 29.8648 60.446 23.7448 59.584C38.9401 72.5032 51.5657 86.5466 64.3519 100.524C49.5916 91.7589 38.2913 78.5532 22.4099 68.591C24.6841 75.5639 26.769 80.7546 28.0569 86.1361C31.5639 100.791 38.6176 112.876 51.4845 121.308C53.8489 122.858 55.7813 124.649 58.8875 123.327C60.8535 128.92 62.6205 134.015 64.4359 139.093C66.1486 143.884 70.4538 145.489 74.6732 146.802C78.7825 148.081 78.5275 143.304 80.6943 141.79C80.947 141.613 81.4006 141.724 82.519 141.654C82.399 147.31 77.218 155.595 88.4262 156.288C92.1844 156.521 95.8113 156.157 97.9991 152.357C100.057 148.783 95.629 145.142 97.992 141.195C101.095 142.555 100.617 148.364 105.24 146.763C109.908 145.146 114.082 142.792 115.754 137.623C116.941 133.95 118.139 130.278 119.439 126.644C119.936 125.256 120.245 123.604 122.126 123.228C131.227 121.406 137.255 114.589 142.135 108.038C150.357 96.9995 152.079 82.9514 156.923 68.7654C141.096 78.5106 129.966 91.791 115.265 100.518C127.867 86.6531 140.662 73.0696 155.667 59.5145C148.841 60.7064 144.344 62.991 140.437 66.581C130.341 75.8599 120.191 85.0813 110.14 94.4091C106.846 97.4655 103.535 99.0865 98.695 98.2024C94.6242 97.4587 90.3767 95.8232 86.1225 97.2921C77.6949 100.202 71.0714 97.7665 65.2812 90.1995Z" fill="black"/>
<path d="M153.81 249.748C155.353 248.855 156.571 248.243 157.66 247.454C162.434 243.995 162.49 240.881 157.714 237.516C155.715 236.108 153.459 235.063 150.376 233.32C154.921 231.89 157.825 234.138 160.866 234.992C165.157 236.196 169.239 238.047 172.795 240.76C178.353 244.999 178.407 249.821 172.89 254.091C166.946 258.691 159.797 260.763 152.673 262.379C122.113 269.315 91.1875 270.093 60.0589 267.512C46.1745 266.36 32.4904 264.362 19.1739 260.206C14.3747 258.708 9.62704 257.017 5.81845 253.528C1.37711 249.46 1.24551 244.934 5.99303 241.269C12.3388 236.371 19.8185 234.02 28.2452 232.337C27.2796 235.222 25.1679 235.416 23.6593 236.326C21.1638 237.832 18.3221 239.235 18.3331 242.607C18.3442 246.008 21.2846 247.458 23.7731 248.824C30.8034 252.685 38.5575 254.613 46.3689 255.714C78.2947 260.215 110.197 260.735 141.89 253.705C145.819 252.834 149.584 251.219 153.81 249.748Z" fill="black"/>
<path d="M142.997 247.325C119.028 255.299 94.7674 255.261 70.4346 253.817C59.2727 253.155 48.1409 251.746 37.5713 247.773C33.1533 246.113 27.3107 244.838 27.3961 238.98C27.4751 233.568 32.996 232.029 37.2808 230.494C41.9675 228.815 46.8975 227.815 52.2478 226.377C52.8909 232.696 57.693 234 62.618 235.042C80.7982 238.89 99.0087 238.683 117.142 234.897C121.517 233.984 126.483 232.967 126.757 226.628C133.285 227.733 139.491 228.931 145.257 231.71C148.397 233.223 151.85 234.792 151.991 238.888C152.135 243.091 148.627 244.592 145.53 246.209C144.846 246.566 144.128 246.855 142.997 247.325ZM122.196 241.072C103.311 245.183 84.2421 245.407 65.2663 242.493C56.9783 241.22 47.2576 241.357 43.2461 231.241C36.9977 235.041 36.9533 237.224 42.8661 240.407C46.4586 242.341 50.3425 243.563 54.3183 244.363C73.3735 248.197 92.5921 248.867 111.852 246.52C120.434 245.474 129.117 244.316 136.954 240.173C138.795 239.2 141.112 238.093 140.93 235.66C140.754 233.32 138.67 232.315 136.102 231.742C133.891 237.696 128.657 239.477 122.196 241.072Z" fill="black"/>
<path d="M114.414 125.136C113.451 129.728 110.281 131.476 106.677 132.522C104.169 133.25 101.096 134.502 99.3977 131.467C97.816 128.641 100.037 126.323 101.794 124.344C106.406 119.151 111.878 119.351 114.414 125.136Z" fill="black"/>
<path d="M69.1533 120.525C74.2997 121.125 77.8862 123.314 79.7841 127.816C80.3872 129.246 80.9959 130.841 79.6027 132.083C77.1932 134.231 74.4436 133.125 71.9733 132.298C68.6368 131.182 65.5717 129.437 64.9875 125.451C64.5798 122.669 66.1274 121.171 69.1533 120.525Z" fill="black"/>
<path d="M93.5417 153.991C92.7258 154.215 92.3507 154.335 91.9722 154.346C88.9603 154.44 85.636 155.282 83.8806 151.736C83.1329 150.225 83.5198 148.474 84.9484 147.629C87.9644 145.845 91.5835 145.992 94.3752 147.372C97.9358 149.131 97.2013 151.846 93.5417 153.991Z" fill="black"/>
</svg>
