<svg  viewBox="0 0 582 218" fill="none" xmlns="http://www.w3.org/2000/svg">
<path d="M108.5 0C168.423 0 217 48.5771 217 108.5C217 168.423 168.423 217 108.5 217C48.5771 217 0 168.423 0 108.5C0 48.5771 48.5771 0 108.5 0ZM109 14C56.5329 14 14 56.5329 14 109C14 161.467 56.5329 204 109 204C161.467 204 204 161.467 204 109C204 56.5329 161.467 14 109 14Z" fill="black"/>
<rect x="223" width="16" height="217" fill="black"/>
<rect x="345.888" y="54" width="16" height="194.731" transform="rotate(38 345.888 54)" fill="black"/>
<path d="M403.687 38.8105L307.06 162.487L306.436 162H307V71.1289L359.327 4.15332L403.687 38.8105ZM263 128.063L262.7 127.83L263 127.446V128.063Z" fill="black"/>
<rect x="358" y="4" width="59" height="213" fill="black"/>
<rect x="430" y="3" width="152" height="16" fill="black"/>
<rect x="430" y="101" width="152" height="16" fill="black"/>
<rect x="430" y="201" width="152" height="16" fill="black"/>
<rect x="430" y="19" width="16" height="182" fill="black"/>
</svg>
