<svg xmlns="http://www.w3.org/2000/svg" xml:space="preserve" id="logored_svg__Layer_1" x="0" y="0" viewBox="0 0 395.1 167.6" >
  <style>
    .logored_svg__st0 {
      fill: #000000
    }

    .logored_svg__st1 {
      fill: #000000
    }

    .logored_svg__st2 {
      fill: #000000
    }
  </style>
    <path d="M529.8-178.2c-.7 0-1.1.2-1.4.5-.6.6-.6 1.3-.6 1.3v-7.300000000000001s.2 1.1.8 1.6c.3.3.6.5 1.3.5h9.8c.9 0 1.9-.7 2.3-1.8l2 5.1zM539.3-168.2h-9.5c-.7 0-1.1.2-1.4.5-.6.6-.6 1.3-.6 1.3v-7.5s.2 1.2.8 1.6c.3.3.6.5 1.3.5h9.5s2.6.1 2.6-2.6c0-2.1-.6-3.1-.6-3.1s2.9 1.9 2.6 6c-.2 3.6-4.7 3.3-4.7 3.3M539.3-158.2H510c-.7 0-1.1.2-1.4.5-.6.6-.7 1.3-.7 1.3v-7.300000000000001s.3 1.2.9 1.6c.3.3.6.5 1.3.5h29.2s2.6.1 2.6-2.6c0-2.1-.6-3.1-.6-3.1s2.9 1.9 2.6 6c-.1 3.4-4.6 3.1-4.6 3.1" class="logored_svg__st0"></path>
    <path d="M519.5-148.2H510c-.6 0-1.1.2-1.4.5-.6.7-.7 1.4-.7 1.4v-7.4s.2 1.2.8 1.6c.3.3.6.5 1.3.5h9.5s2.6.1 2.6-2.6c0-2.1-.6-3.1-.6-3.1s2.9 1.9 2.6 6c-.2 3.4-4.6 3.1-4.6 3.1M519.5-138.1H510c-.6 0-1.1.2-1.4.5-.6.6-.7 1.3-.7 1.3v-7.4s.2 1.1.8 1.6c.3.3.6.5 1.3.5h9.5s2.6.1 2.6-2.6c0-2.1-.6-3.1-.6-3.1s2.9 1.9 2.6 6c-.2 3.5-4.6 3.2-4.6 3.2M533.2-189.1c0 .7.2 1.1.5 1.4.6.6 1.3.6 1.3.6h-7.4s1.2-.2 1.6-.8c.3-.3.5-.6.5-1.3v-9.8c0-.9-.7-1.9-1.8-2.3l5.1-2zM543.1-198.6v9.5c0 .7.2 1.1.5 1.4.6.6 1.3.6 1.3.6h-7.300000000000001s1.2-.2 1.6-.8c.3-.3.5-.6.5-1.3v-9.5s.1-2.6-2.6-2.6c-2.1 0-3.1.6-3.1.6s1.9-2.9 6-2.6c3.4.3 3.1 4.7 3.1 4.7M553.1-198.6v29.3c0 .6.2 1.1.5 1.4.6.6 1.3.7 1.3.7h-7.300000000000001s1.2-.3 1.6-.9c.3-.3.5-.6.5-1.3v-29.2s.1-2.6-2.6-2.6c-2.1 0-3.1.6-3.1.6s1.9-2.9 6-2.6c3.5.2 3.1 4.6 3.1 4.6" class="logored_svg__st0"></path>
    <path d="M563.2-178.7v9.5c0 .7.2 1.1.5 1.4.6.6 1.3.6 1.3.6h-7.4s1.2-.2 1.6-.8c.3-.3.5-.6.5-1.3v-9.5s.1-2.6-2.6-2.6c-2.1 0-3.1.6-3.1.6s1.9-2.9 6-2.6c3.5.3 3.2 4.7 3.2 4.7M573.2-178.7v9.5c0 .7.2 1.1.5 1.4.6.6 1.3.6 1.3.6h-7.5s1.2-.2 1.6-.8c.3-.3.5-.6.5-1.3v-9.5s.1-2.6-2.6-2.6c-2.1 0-3.1.6-3.1.6s1.9-2.9 6-2.6c3.6.3 3.3 4.7 3.3 4.7M522.2-192.4c.7 0 1.1-.2 1.4-.5.6-.6.6-1.3.6-1.3v7.300000000000001s-.2-1.2-.8-1.6c-.3-.3-.6-.5-1.3-.5h-9.8c-.9 0-1.9.7-2.3 1.8l-2-5.1zM512.7-202.4h9.5c.7 0 1.1-.2 1.4-.5.6-.6.6-1.3.6-1.3v7.5s-.2-1.2-.8-1.6c-.3-.3-.6-.5-1.3-.5h-9.5s-2.6-.1-2.6 2.6c0 2.1.6 3.1.6 3.1s-2.9-1.9-2.6-6c.3-3.6 4.7-3.3 4.7-3.3M512.7-212.4H542c.7 0 1.1-.2 1.4-.5.6-.6.7-1.3.7-1.3v7.300000000000001s-.3-1.2-.9-1.6c-.3-.3-.6-.5-1.3-.5h-29.2s-2.6-.1-2.6 2.6c0 2.1.6 3.1.6 3.1s-2.9-1.9-2.6-6c.2-3.4 4.6-3.1 4.6-3.1" class="logored_svg__st0"></path>
    <path d="M532.6-222.4h9.5c.6 0 1.1-.2 1.4-.5.6-.6.6-1.3.6-1.3v7.300000000000001s-.2-1.2-.8-1.6c-.3-.3-.6-.5-1.3-.5h-9.5s-2.6-.1-2.6 2.6c0 2.1.6 3.1.6 3.1s-2.9-1.9-2.6-6c.3-3.4 4.7-3.1 4.7-3.1M532.6-232.4h9.5c.6 0 1.1-.2 1.4-.5.6-.7.6-1.4.6-1.4v7.4s-.2-1.2-.8-1.6c-.3-.3-.6-.5-1.3-.5h-9.5s-2.6-.1-2.6 2.6c0 2.1.6 3.1.6 3.1s-2.9-1.9-2.6-6c.3-3.5 4.7-3.1 4.7-3.1M518.8-181.6c0-.7-.2-1.1-.5-1.4-.6-.6-1.3-.6-1.3-.6h7.4s-1.2.2-1.6.8c-.3.3-.5.6-.5 1.3v9.8c0 .9.7 1.9 1.8 2.3l-5.1 2zM508.9-172.1v-9.5c0-.7-.2-1.1-.5-1.4-.6-.6-1.3-.6-1.3-.6h7.300000000000001s-1.1.2-1.6.8c-.3.3-.5.6-.5 1.3v9.5s-.1 2.6 2.6 2.6c2.1 0 3.1-.6 3.1-.6s-1.9 2.9-6 2.6c-3.4-.2-3.1-4.7-3.1-4.7M498.9-172.1v-29.3c0-.7-.2-1.1-.5-1.4-.7-.5-1.4-.6-1.4-.6h7.4s-1.2.3-1.6.9c-.3.3-.5.6-.5 1.3v29.2s-.1 2.6 2.6 2.6c2.1 0 3.1-.6 3.1-.6s-1.9 2.9-6 2.6c-3.5-.2-3.1-4.7-3.1-4.7" class="logored_svg__st0"></path>
    <path d="M488.8-191.9v-9.5c0-.7-.2-1.1-.5-1.4-.6-.6-1.3-.6-1.3-.6h7.4s-1.1.2-1.6.8c-.3.3-.5.6-.5 1.3v9.5s-.1 2.6 2.6 2.6c2.1 0 3.1-.6 3.1-.6s-1.9 2.9-6 2.6c-3.5-.3-3.2-4.7-3.2-4.7M478.8-191.9v-9.5c0-.7-.2-1.1-.5-1.4-.6-.6-1.3-.6-1.3-.6h7.5s-1.2.2-1.6.8c-.5.3-.8.6-.8 1.3v9.5s-.1 2.6 2.6 2.6c2.1 0 3.1-.6 3.1-.6s-1.9 2.9-6 2.6c-3.3-.3-3-4.7-3-4.7" class="logored_svg__st0"></path>
    <path d="M364.8-178.2c-.7 0-1.1.2-1.4.5-.6.6-.6 1.3-.6 1.3v-7.300000000000001s.2 1.1.8 1.6c.3.3.6.5 1.3.5h9.8c.9 0 1.9-.7 2.3-1.8l2 5.1zM374.3-168.2h-9.5c-.7 0-1.1.2-1.4.5-.6.6-.6 1.3-.6 1.3v-7.5s.2 1.2.8 1.6c.3.3.6.5 1.3.5h9.5s2.6.1 2.6-2.6c0-2.1-.6-3.1-.6-3.1s2.9 1.9 2.6 6c-.2 3.6-4.7 3.3-4.7 3.3M374.3-158.2H345c-.7 0-1.1.2-1.4.5-.6.6-.7 1.3-.7 1.3v-7.300000000000001s.3 1.2.9 1.6c.3.3.6.5 1.3.5h29.2s2.6.1 2.6-2.6c0-2.1-.6-3.1-.6-3.1s2.9 1.9 2.6 6c-.1 3.4-4.6 3.1-4.6 3.1" class="logored_svg__st1"></path>
    <path d="M354.5-148.2H345c-.6 0-1.1.2-1.4.5-.6.7-.7 1.4-.7 1.4v-7.4s.2 1.2.8 1.6c.3.3.6.5 1.3.5h9.5s2.6.1 2.6-2.6c0-2.1-.6-3.1-.6-3.1s2.9 1.9 2.6 6c-.2 3.4-4.6 3.1-4.6 3.1M354.5-138.1H345c-.6 0-1.1.2-1.4.5-.6.6-.7 1.3-.7 1.3v-7.4s.2 1.1.8 1.6c.3.3.6.5 1.3.5h9.5s2.6.1 2.6-2.6c0-2.1-.6-3.1-.6-3.1s2.9 1.9 2.6 6c-.2 3.5-4.6 3.2-4.6 3.2M368.2-189.1c0 .7.2 1.1.5 1.4.6.6 1.3.6 1.3.6h-7.4s1.2-.2 1.6-.8c.3-.3.5-.6.5-1.3v-9.8c0-.9-.7-1.9-1.8-2.3l5.1-2zM378.1-198.6v9.5c0 .7.2 1.1.5 1.4.6.6 1.3.6 1.3.6h-7.300000000000001s1.2-.2 1.6-.8c.3-.3.5-.6.5-1.3v-9.5s.1-2.6-2.6-2.6c-2.1 0-3.1.6-3.1.6s1.9-2.9 6-2.6c3.4.3 3.1 4.7 3.1 4.7M388.1-198.6v29.3c0 .6.2 1.1.5 1.4.6.6 1.3.7 1.3.7h-7.300000000000001s1.2-.3 1.6-.9c.3-.3.5-.6.5-1.3v-29.2s.1-2.6-2.6-2.6c-2.1 0-3.1.6-3.1.6s1.9-2.9 6-2.6c3.5.2 3.1 4.6 3.1 4.6" class="logored_svg__st1"></path>
    <path d="M398.2-178.7v9.5c0 .7.2 1.1.5 1.4.6.6 1.3.6 1.3.6h-7.4s1.2-.2 1.6-.8c.3-.3.5-.6.5-1.3v-9.5s.1-2.6-2.6-2.6c-2.1 0-3.1.6-3.1.6s1.9-2.9 6-2.6c3.5.3 3.2 4.7 3.2 4.7M408.2-178.7v9.5c0 .7.2 1.1.5 1.4.6.6 1.3.6 1.3.6h-7.5s1.2-.2 1.6-.8c.3-.3.5-.6.5-1.3v-9.5s.1-2.6-2.6-2.6c-2.1 0-3.1.6-3.1.6s1.9-2.9 6-2.6c3.6.3 3.3 4.7 3.3 4.7M357.2-192.4c.7 0 1.1-.2 1.4-.5.6-.6.6-1.3.6-1.3v7.300000000000001s-.2-1.2-.8-1.6c-.3-.3-.6-.5-1.3-.5h-9.8c-.9 0-1.9.7-2.3 1.8l-2-5.1zM347.7-202.4h9.5c.7 0 1.1-.2 1.4-.5.6-.6.6-1.3.6-1.3v7.5s-.2-1.2-.8-1.6c-.3-.3-.6-.5-1.3-.5h-9.5s-2.6-.1-2.6 2.6c0 2.1.6 3.1.6 3.1s-2.9-1.9-2.6-6c.3-3.6 4.7-3.3 4.7-3.3M347.7-212.4H377c.7 0 1.1-.2 1.4-.5.6-.6.7-1.3.7-1.3v7.300000000000001s-.3-1.2-.9-1.6c-.3-.3-.6-.5-1.3-.5h-29.2s-2.6-.1-2.6 2.6c0 2.1.6 3.1.6 3.1s-2.9-1.9-2.6-6c.2-3.4 4.6-3.1 4.6-3.1" class="logored_svg__st1"></path>
    <path d="M367.6-222.4h9.5c.6 0 1.1-.2 1.4-.5.6-.6.6-1.3.6-1.3v7.300000000000001s-.2-1.2-.8-1.6c-.3-.3-.6-.5-1.3-.5h-9.5s-2.6-.1-2.6 2.6c0 2.1.6 3.1.6 3.1s-2.9-1.9-2.6-6c.3-3.4 4.7-3.1 4.7-3.1M367.6-232.4h9.5c.6 0 1.1-.2 1.4-.5.6-.7.6-1.4.6-1.4v7.4s-.2-1.2-.8-1.6c-.3-.3-.6-.5-1.3-.5h-9.5s-2.6-.1-2.6 2.6c0 2.1.6 3.1.6 3.1s-2.9-1.9-2.6-6c.3-3.5 4.7-3.1 4.7-3.1M353.8-181.6c0-.7-.2-1.1-.5-1.4-.6-.6-1.3-.6-1.3-.6h7.4s-1.2.2-1.6.8c-.3.3-.5.6-.5 1.3v9.8c0 .9.7 1.9 1.8 2.3l-5.1 2zM343.9-172.1v-9.5c0-.7-.2-1.1-.5-1.4-.6-.6-1.3-.6-1.3-.6h7.300000000000001s-1.1.2-1.6.8c-.3.3-.5.6-.5 1.3v9.5s-.1 2.6 2.6 2.6c2.1 0 3.1-.6 3.1-.6s-1.9 2.9-6 2.6c-3.4-.2-3.1-4.7-3.1-4.7M333.9-172.1v-29.3c0-.7-.2-1.1-.5-1.4-.7-.5-1.4-.6-1.4-.6h7.4s-1.2.3-1.6.9c-.3.3-.5.6-.5 1.3v29.2s-.1 2.6 2.6 2.6c2.1 0 3.1-.6 3.1-.6s-1.9 2.9-6 2.6c-3.5-.2-3.1-4.7-3.1-4.7" class="logored_svg__st1"></path>
    <path d="M323.8-191.9v-9.5c0-.7-.2-1.1-.5-1.4-.6-.6-1.3-.6-1.3-.6h7.4s-1.1.2-1.6.8c-.3.3-.5.6-.5 1.3v9.5s-.1 2.6 2.6 2.6c2.1 0 3.1-.6 3.1-.6s-1.9 2.9-6 2.6c-3.5-.3-3.2-4.7-3.2-4.7M313.8-191.9v-9.5c0-.7-.2-1.1-.5-1.4-.6-.6-1.3-.6-1.3-.6h7.5s-1.2.2-1.6.8c-.5.3-.8.6-.8 1.3v9.5s-.1 2.6 2.6 2.6c2.1 0 3.1-.6 3.1-.6s-1.9 2.9-6 2.6c-3.3-.3-3-4.7-3-4.7" class="logored_svg__st1"></path>
    <path d="M691.8-178.2c-.7 0-1.1.2-1.4.5-.6.6-.6 1.3-.6 1.3v-7.300000000000001s.2 1.1.8 1.6c.3.3.6.5 1.3.5h9.8c.9 0 1.9-.7 2.3-1.8l2 5.1zM701.3-168.2h-9.5c-.7 0-1.1.2-1.4.5-.6.6-.6 1.3-.6 1.3v-7.5s.2 1.2.8 1.6c.3.3.6.5 1.3.5h9.5s2.6.1 2.6-2.6c0-2.1-.6-3.1-.6-3.1s2.9 1.9 2.6 6c-.2 3.6-4.7 3.3-4.7 3.3M701.3-158.2H672c-.7 0-1.1.2-1.4.5-.6.6-.7 1.3-.7 1.3v-7.300000000000001s.3 1.2.9 1.6c.3.3.6.5 1.3.5h29.2s2.6.1 2.6-2.6c0-2.1-.6-3.1-.6-3.1s2.9 1.9 2.6 6c-.1 3.4-4.6 3.1-4.6 3.1" class="logored_svg__st2"></path>
    <path d="M681.5-148.2H672c-.6 0-1.1.2-1.4.5-.6.7-.7 1.4-.7 1.4v-7.4s.2 1.2.8 1.6c.3.3.6.5 1.3.5h9.5s2.6.1 2.6-2.6c0-2.1-.6-3.1-.6-3.1s2.9 1.9 2.6 6c-.2 3.4-4.6 3.1-4.6 3.1M681.5-138.1H672c-.6 0-1.1.2-1.4.5-.6.6-.7 1.3-.7 1.3v-7.4s.2 1.1.8 1.6c.3.3.6.5 1.3.5h9.5s2.6.1 2.6-2.6c0-2.1-.6-3.1-.6-3.1s2.9 1.9 2.6 6c-.2 3.5-4.6 3.2-4.6 3.2M695.2-189.1c0 .7.2 1.1.5 1.4.6.6 1.3.6 1.3.6h-7.4s1.2-.2 1.6-.8c.3-.3.5-.6.5-1.3v-9.8c0-.9-.7-1.9-1.8-2.3l5.1-2zM705.1-198.6v9.5c0 .7.2 1.1.5 1.4.6.6 1.3.6 1.3.6h-7.300000000000001s1.2-.2 1.6-.8c.3-.3.5-.6.5-1.3v-9.5s.1-2.6-2.6-2.6c-2.1 0-3.1.6-3.1.6s1.9-2.9 6-2.6c3.4.3 3.1 4.7 3.1 4.7M715.1-198.6v29.3c0 .6.2 1.1.5 1.4.6.6 1.3.7 1.3.7h-7.300000000000001s1.2-.3 1.6-.9c.3-.3.5-.6.5-1.3v-29.2s.1-2.6-2.6-2.6c-2.1 0-3.1.6-3.1.6s1.9-2.9 6-2.6c3.5.2 3.1 4.6 3.1 4.6" class="logored_svg__st2"></path>
    <path d="M725.2-178.7v9.5c0 .7.2 1.1.5 1.4.6.6 1.3.6 1.3.6h-7.4s1.2-.2 1.6-.8c.3-.3.5-.6.5-1.3v-9.5s.1-2.6-2.6-2.6c-2.1 0-3.1.6-3.1.6s1.9-2.9 6-2.6c3.5.3 3.2 4.7 3.2 4.7M735.2-178.7v9.5c0 .7.2 1.1.5 1.4.6.6 1.3.6 1.3.6h-7.5s1.2-.2 1.6-.8c.3-.3.5-.6.5-1.3v-9.5s.1-2.6-2.6-2.6c-2.1 0-3.1.6-3.1.6s1.9-2.9 6-2.6c3.6.3 3.3 4.7 3.3 4.7M684.2-192.4c.7 0 1.1-.2 1.4-.5.6-.6.6-1.3.6-1.3v7.300000000000001s-.2-1.2-.8-1.6c-.3-.3-.6-.5-1.3-.5h-9.8c-.9 0-1.9.7-2.3 1.8l-2-5.1zM674.7-202.4h9.5c.7 0 1.1-.2 1.4-.5.6-.6.6-1.3.6-1.3v7.5s-.2-1.2-.8-1.6c-.3-.3-.6-.5-1.3-.5h-9.5s-2.6-.1-2.6 2.6c0 2.1.6 3.1.6 3.1s-2.9-1.9-2.6-6c.3-3.6 4.7-3.3 4.7-3.3M674.7-212.4H704c.7 0 1.1-.2 1.4-.5.6-.6.7-1.3.7-1.3v7.300000000000001s-.3-1.2-.9-1.6c-.3-.3-.6-.5-1.3-.5h-29.2s-2.6-.1-2.6 2.6c0 2.1.6 3.1.6 3.1s-2.9-1.9-2.6-6c.2-3.4 4.6-3.1 4.6-3.1" class="logored_svg__st2"></path>
    <path d="M694.6-222.4h9.5c.6 0 1.1-.2 1.4-.5.6-.6.6-1.3.6-1.3v7.300000000000001s-.2-1.2-.8-1.6c-.3-.3-.6-.5-1.3-.5h-9.5s-2.6-.1-2.6 2.6c0 2.1.6 3.1.6 3.1s-2.9-1.9-2.6-6c.3-3.4 4.7-3.1 4.7-3.1M694.6-232.4h9.5c.6 0 1.1-.2 1.4-.5.6-.7.6-1.4.6-1.4v7.4s-.2-1.2-.8-1.6c-.3-.3-.6-.5-1.3-.5h-9.5s-2.6-.1-2.6 2.6c0 2.1.6 3.1.6 3.1s-2.9-1.9-2.6-6c.3-3.5 4.7-3.1 4.7-3.1M680.8-181.6c0-.7-.2-1.1-.5-1.4-.6-.6-1.3-.6-1.3-.6h7.4s-1.2.2-1.6.8c-.3.3-.5.6-.5 1.3v9.8c0 .9.7 1.9 1.8 2.3l-5.1 2zM670.9-172.1v-9.5c0-.7-.2-1.1-.5-1.4-.6-.6-1.3-.6-1.3-.6h7.300000000000001s-1.1.2-1.6.8c-.3.3-.5.6-.5 1.3v9.5s-.1 2.6 2.6 2.6c2.1 0 3.1-.6 3.1-.6s-1.9 2.9-6 2.6c-3.4-.2-3.1-4.7-3.1-4.7M660.9-172.1v-29.3c0-.7-.2-1.1-.5-1.4-.7-.5-1.4-.6-1.4-.6h7.4s-1.2.3-1.6.9c-.3.3-.5.6-.5 1.3v29.2s-.1 2.6 2.6 2.6c2.1 0 3.1-.6 3.1-.6s-1.9 2.9-6 2.6c-3.5-.2-3.1-4.7-3.1-4.7" class="logored_svg__st2"></path>
    <path d="M650.8-191.9v-9.5c0-.7-.2-1.1-.5-1.4-.6-.6-1.3-.6-1.3-.6h7.4s-1.1.2-1.6.8c-.3.3-.5.6-.5 1.3v9.5s-.1 2.6 2.6 2.6c2.1 0 3.1-.6 3.1-.6s-1.9 2.9-6 2.6c-3.5-.3-3.2-4.7-3.2-4.7M640.8-191.9v-9.5c0-.7-.2-1.1-.5-1.4-.6-.6-1.3-.6-1.3-.6h7.5s-1.2.2-1.6.8c-.5.3-.8.6-.8 1.3v9.5s-.1 2.6 2.6 2.6c2.1 0 3.1-.6 3.1-.6s-1.9 2.9-6 2.6c-3.3-.3-3-4.7-3-4.7M939.1 79.8c0 2.3.8 3.9 2 5 2.2 2.1 4.7 2.3 4.7 2.3h-26.5s4.1-.7 5.9-3c1-1.2 1.9-2.3 1.9-4.7V44.2c0-3.2-2.4-6.7-6.6-8.4 0 0 18.3-7.2 18.4-7.3zm35.7-34.2.1 34.1c0 2.3.8 3.9 2 5 2.2 2.1 4.7 2.3 4.7 2.3H955s4.1-.7 5.9-3c1-1.2 1.9-2.3 1.9-4.7V45.4s.2-9.2-9.4-9.3c-7.7-.1-11.1 2.2-11.1 2.2s6.7-10.5 21.6-9.4c12 .9 10.9 16.7 10.9 16.7m36 0 .1 105.1c0 2.3.8 3.9 2 5 2.2 2.1 4.7 2.6 4.7 2.6H991s4.1-1 5.9-3.3c1-1.2 1.9-2.3 1.9-4.7V45.4s.2-9.2-9.4-9.3c-7.7-.1-11.1 2.2-11.1 2.2s6.7-10.5 21.6-9.4c12 .9 10.9 16.7 10.9 16.7m36 71.4.1 34.1c0 2.3.8 3.9 2 5 2.2 2.1 4.7 2.3 4.7 2.3h-26.5s4.1-.7 5.9-3c1-1.2 1.9-2.3 1.9-4.7v-33.9s.2-9.2-9.4-9.3c-7.7-.1-11.1 2.2-11.1 2.2s6.7-10.5 21.6-9.4c11.9.8 10.8 16.7 10.8 16.7m36 0 .1 34.1c0 2.3.8 3.9 2 5 2.2 2.1 4.7 2.3 4.7 2.3h-26.5s4.1-.7 5.9-3c1-1.2 1.9-2.3 1.9-4.7v-33.9s.2-9.2-9.4-9.3c-7.7-.1-11.1 2.2-11.1 2.2s6.7-10.5 21.6-9.4c11.9.8 10.8 16.7 10.8 16.7m156 34.2c0 2.3.8 3.9 2 5 2.2 2.1 4.7 2.3 4.7 2.3H1219s4.1-.7 5.9-3c1-1.2 1.9-2.3 1.9-4.7v-35.2c0-3.2-2.4-6.7-6.6-8.4 0 0 18.3-7.2 18.4-7.3zm35.6-34.1.1 34.1c0 2.3.8 3.9 2 5 2.2 2.1 4.7 2.3 4.7 2.3h-26.5s4.1-.7 5.9-3c1-1.2 1.9-2.3 1.9-4.7v-33.9s.2-9.2-9.4-9.3c-7.7-.1-11.1 2.2-11.1 2.2s6.7-10.5 21.6-9.4c12 .9 10.8 16.7 10.8 16.7m-194.9-37.3c0 2.3.8 3.9 2 5 2.2 2.1 4.7 2.3 4.7 2.3h-26.5s4.1-.7 5.9-3c1-1.2 1.9-2.3 1.9-4.7V44.2c0-3.2-2.4-6.7-6.6-8.4 0 0 18.3-7.2 18.4-7.3zm-34 0c0 2.3.8 3.9 2 5 2.2 2.1 4.7 2.3 4.7 2.3h-26.5s4.1-.7 5.9-3c1-1.2 1.9-2.3 1.9-4.7V44.2c0-3.2-2.4-6.7-6.6-8.4 0 0 18.3-7.2 18.4-7.3zm103.2 0c0 2.3.8 3.9 2 5 2.2 2.1 4.7 2.3 4.7 2.3h-26.5s4.1-.7 5.9-3c1-1.2 1.9-2.3 1.9-4.7V44.2c0-3.2-2.4-6.7-6.6-8.4 0 0 18.3-7.2 18.4-7.3zm-33.5-34.2.1 34.1c0 2.3.8 3.9 2 5 2.2 2.1 4.7 2.3 4.7 2.3h-26.5s4.1-.7 5.9-3c1-1.2 1.9-2.3 1.9-4.7V45.4s.2-9.2-9.4-9.3c-7.7-.1-11.1 2.2-11.1 2.2s6.7-10.5 21.6-9.4c12 .9 10.8 16.7 10.8 16.7M1127.1 158s-16.8-5.6-20.8-28 6.1-27.4 6.1-27.4-21.9 8.6-17.5 32.5c4.9 26.9 32.2 22.9 32.2 22.9M1116.7 101.7s17.9 5.1 22 27.8-7 27.8-7 27.8 23.4-8.8 18.6-32.9c-5.5-27.8-33.6-22.7-33.6-22.7M1192.3 158s-16.8-5.6-20.8-28 6.1-27.4 6.1-27.4-21.9 8.6-17.5 32.5c4.9 26.9 32.2 22.9 32.2 22.9M1181.9 101.7s17.9 5.1 22 27.8-7 27.8-7 27.8 23.4-8.8 18.6-32.9c-5.5-27.8-33.6-22.7-33.6-22.7M1033 20c-2.9-2.9-2.9-7.5 0-10.3 2.9-2.9 7.5-2.9 10.3 0s2.9 7.5 0 10.3c-2.8 2.8-7.5 2.8-10.3 0M1135.6 20c-2.9-2.9-2.9-7.5 0-10.3s7.5-2.9 10.3 0c2.9 2.9 2.9 7.5 0 10.3-2.8 2.8-7.4 2.8-10.3 0" class="logored_svg__st2"></path>
    <path d="M484 79.8c0 2.3.8 3.9 2 5 2.2 2.1 4.7 2.3 4.7 2.3h-26.5s4.1-.7 5.9-3c1-1.2 1.9-2.3 1.9-4.7V44.2c0-3.2-2.4-6.7-6.6-8.4 0 0 18.3-7.2 18.4-7.3zm35.7-34.2.1 34.1c0 2.3.8 3.9 2 5 2.2 2.1 4.7 2.3 4.7 2.3H500s4.1-.7 5.9-3c1-1.2 1.9-2.3 1.9-4.7V45.4s.2-9.2-9.4-9.3c-7.7-.1-11.1 2.2-11.1 2.2s6.7-10.5 21.6-9.4c12 .9 10.8 16.7 10.8 16.7m36 0 .1 105.1c0 2.3.8 3.9 2 5 2.2 2.1 4.7 2.6 4.7 2.6H536s4.1-1 5.9-3.3c1-1.2 1.9-2.3 1.9-4.7V45.4s.2-9.2-9.4-9.3c-7.7-.1-11.1 2.2-11.1 2.2s6.7-10.5 21.6-9.4c12 .9 10.8 16.7 10.8 16.7m36 71.4.1 34.1c0 2.3.8 3.9 2 5 2.2 2.1 4.7 2.3 4.7 2.3H572s4.1-.7 5.9-3c1-1.2 1.9-2.3 1.9-4.7v-33.9s.2-9.2-9.4-9.3c-7.7-.1-11.1 2.2-11.1 2.2s6.7-10.5 21.6-9.4c12 .8 10.8 16.7 10.8 16.7m36 0 .1 34.1c0 2.3.8 3.9 2 5 2.2 2.1 4.7 2.3 4.7 2.3H608s4.1-.7 5.9-3c1-1.2 1.9-2.3 1.9-4.7v-33.9s.2-9.2-9.4-9.3c-7.7-.1-11.1 2.2-11.1 2.2s6.7-10.5 21.6-9.4c12 .8 10.8 16.7 10.8 16.7m156 34.2c0 2.3.8 3.9 2 5 2.2 2.1 4.7 2.3 4.7 2.3h-26.5s4.1-.7 5.9-3c1-1.2 1.9-2.3 1.9-4.7v-35.2c0-3.2-2.4-6.7-6.6-8.4 0 0 18.3-7.2 18.4-7.3zm35.7-34.1.1 34.1c0 2.3.8 3.9 2 5 2.2 2.1 4.7 2.3 4.7 2.3h-26.5s4.1-.7 5.9-3c1-1.2 1.9-2.3 1.9-4.7v-33.9s.2-9.2-9.4-9.3c-7.7-.1-11.1 2.2-11.1 2.2s6.7-10.5 21.6-9.4c12 .9 10.8 16.7 10.8 16.7M624.5 79.8c0 2.3.8 3.9 2 5 2.2 2.1 4.7 2.3 4.7 2.3h-26.5s4.1-.7 5.9-3c1-1.2 1.9-2.3 1.9-4.7V44.2c0-3.2-2.4-6.7-6.6-8.4 0 0 18.3-7.2 18.4-7.3zm-34.1 0c0 2.3.8 3.9 2 5 2.2 2.1 4.7 2.3 4.7 2.3h-26.5s4.1-.7 5.9-3c1-1.2 1.9-2.3 1.9-4.7V44.2c0-3.2-2.4-6.7-6.6-8.4 0 0 18.3-7.2 18.4-7.3zm103.3 0c0 2.3.8 3.9 2 5 2.2 2.1 4.7 2.3 4.7 2.3h-26.5s4.1-.7 5.9-3c1-1.2 1.9-2.3 1.9-4.7V44.2c0-3.2-2.4-6.7-6.6-8.4 0 0 18.3-7.2 18.4-7.3zm-33.5-34.2.1 34.1c0 2.3.8 3.9 2 5 2.2 2.1 4.7 2.3 4.7 2.3h-26.5s4.1-.7 5.9-3c1-1.2 1.9-2.3 1.9-4.7V45.4s.2-9.2-9.4-9.3c-7.7-.1-11.1 2.2-11.1 2.2s6.7-10.5 21.6-9.4c11.9.9 10.8 16.7 10.8 16.7M672.1 158s-16.8-5.6-20.8-28 6.1-27.4 6.1-27.4-21.9 8.6-17.5 32.5c4.9 26.9 32.2 22.9 32.2 22.9M661.7 101.7s17.9 5.1 22 27.8-7 27.8-7 27.8 23.4-8.8 18.6-32.9c-5.5-27.8-33.6-22.7-33.6-22.7M737.3 158s-16.8-5.6-20.8-28 6.1-27.4 6.1-27.4-21.9 8.6-17.5 32.5c4.8 26.9 32.2 22.9 32.2 22.9M726.8 101.7s17.9 5.1 22 27.8-7 27.8-7 27.8 23.4-8.8 18.6-32.9c-5.4-27.8-33.6-22.7-33.6-22.7M577.9 20c-2.9-2.9-2.9-7.5 0-10.3 2.9-2.9 7.5-2.9 10.3 0s2.9 7.5 0 10.3c-2.8 2.8-7.4 2.8-10.3 0M680.6 20c-2.9-2.9-2.9-7.5 0-10.3 2.9-2.9 7.5-2.9 10.3 0s2.9 7.5 0 10.3c-2.8 2.8-7.4 2.8-10.3 0" class="logored_svg__st0"></path>
    <path d="M34.8 79.8c0 2.3.8 3.9 2 5 2.2 2.1 4.7 2.3 4.7 2.3H14.9s4.1-.7 5.9-3c1-1.2 1.9-2.3 1.9-4.7V44.2c0-3.2-2.4-6.7-6.6-8.4 0 0 18.3-7.2 18.4-7.3zm35.6-34.2.1 34.1c0 2.3.8 3.9 2 5 2.2 2.1 4.7 2.3 4.7 2.3H50.7s4.1-.7 5.9-3c1-1.2 1.9-2.3 1.9-4.7V45.4s.2-9.2-9.4-9.3C41.4 36 38 38.3 38 38.3s6.7-10.5 21.6-9.4c12 .9 10.8 16.7 10.8 16.7m36 0 .1 105.1c0 2.3.8 3.9 2 5 2.2 2.1 4.7 2.6 4.7 2.6H86.7s4.1-1 5.9-3.3c1-1.2 1.9-2.3 1.9-4.7V45.4s.2-9.2-9.4-9.3C77.4 36 74 38.3 74 38.3s6.7-10.5 21.6-9.4c12 .9 10.8 16.7 10.8 16.7m36 71.4.1 34.1c0 2.3.8 3.9 2 5 2.2 2.1 4.7 2.3 4.7 2.3h-26.5s4.1-.7 5.9-3c1-1.2 1.9-2.3 1.9-4.7v-33.9s.2-9.2-9.4-9.3c-7.7-.1-11.1 2.2-11.1 2.2s6.7-10.5 21.6-9.4c12 .8 10.8 16.7 10.8 16.7m36.1 0 .1 34.1c0 2.3.8 3.9 2 5 2.2 2.1 4.7 2.3 4.7 2.3h-26.5s4.1-.7 5.9-3c1-1.2 1.9-2.3 1.9-4.7v-33.9s.2-9.2-9.4-9.3c-7.7-.1-11.1 2.2-11.1 2.2s6.7-10.5 21.6-9.4c11.9.8 10.8 16.7 10.8 16.7m155.9 34.2c0 2.3.8 3.9 2 5 2.2 2.1 4.7 2.3 4.7 2.3h-26.5s4.1-.7 5.9-3c1-1.2 1.9-2.3 1.9-4.7v-35.2c0-3.2-2.4-6.7-6.6-8.4 0 0 18.3-7.2 18.4-7.3zm35.7-34.1.1 34.1c0 2.3.8 3.9 2 5 2.2 2.1 4.7 2.3 4.7 2.3h-26.5s4.1-.7 5.9-3c1-1.2 1.9-2.3 1.9-4.7v-33.9s.2-9.2-9.4-9.3c-7.7-.1-11.1 2.2-11.1 2.2s6.7-10.5 21.6-9.4c12 .9 10.8 16.7 10.8 16.7M175.2 79.8c0 2.3.8 3.9 2 5 2.2 2.1 4.7 2.3 4.7 2.3h-26.5s4.1-.7 5.9-3c1-1.2 1.9-2.3 1.9-4.7V44.2c0-3.2-2.4-6.7-6.6-8.4 0 0 18.3-7.2 18.4-7.3zm-34.1 0c0 2.3.8 3.9 2 5 2.2 2.1 4.7 2.3 4.7 2.3h-26.5s4.1-.7 5.9-3c1-1.2 1.9-2.3 1.9-4.7V44.2c0-3.2-2.4-6.7-6.6-8.4 0 0 18.3-7.2 18.4-7.3zm103.3 0c0 2.3.8 3.9 2 5 2.2 2.1 4.7 2.3 4.7 2.3h-26.5s4.1-.7 5.9-3c1-1.2 1.9-2.3 1.9-4.7V44.2c0-3.2-2.4-6.7-6.6-8.4 0 0 18.3-7.2 18.4-7.3zm-33.5-34.2.1 34.1c0 2.3.8 3.9 2 5 2.2 2.1 4.7 2.3 4.7 2.3h-26.5s4.1-.7 5.9-3c1-1.2 1.9-2.3 1.9-4.7V45.4s.2-9.2-9.4-9.3c-7.7-.1-11.1 2.2-11.1 2.2s6.7-10.5 21.6-9.4c12 .9 10.8 16.7 10.8 16.7M222.8 158s-16.8-5.6-20.8-28 6.1-27.4 6.1-27.4-21.9 8.6-17.5 32.5c4.9 26.9 32.2 22.9 32.2 22.9M212.4 101.7s17.9 5.1 22 27.8-7 27.8-7 27.8 23.4-8.8 18.6-32.9c-5.5-27.8-33.6-22.7-33.6-22.7M288 158s-16.8-5.6-20.8-28 6.1-27.4 6.1-27.4-21.9 8.6-17.5 32.5C260.6 162 288 158 288 158M277.5 101.7s17.9 5.1 22 27.8-7 27.8-7 27.8 23.4-8.8 18.6-32.9c-5.4-27.8-33.6-22.7-33.6-22.7M128.7 20c-2.9-2.9-2.9-7.5 0-10.3 2.9-2.9 7.5-2.9 10.3 0 2.9 2.9 2.9 7.5 0 10.3s-7.5 2.8-10.3 0M231.3 20c-2.9-2.9-2.9-7.5 0-10.3 2.9-2.9 7.5-2.9 10.3 0 2.9 2.9 2.9 7.5 0 10.3-2.8 2.8-7.4 2.8-10.3 0" class="logored_svg__st1"></path>
</svg>